HIERARCHY
ROOT Hips
{
	OFFSET 0.000000 0.000000 0.000000
	CHANNELS 6 Xposition Yposition Zposition Zrotation Yrotation Xrotation 
	JOINT LHipJoint
	{
		OFFSET 0.000000 0.000000 0.000000
		CHANNELS 3 Zrotation Yrotation Xrotation
		JOINT LeftUpLeg
		{
			OFFSET 1.363060 -1.794630 0.839290
			CHANNELS 3 Zrotation Yrotation Xrotation
			JOINT LeftLeg
			{
				OFFSET 2.448110 -6.726130 0.000000
				CHANNELS 3 Zrotation Yrotation Xrotation
				JOINT LeftFoot
				{
					OFFSET 2.562200 -7.039590 0.000000
					CHANNELS 3 Zrotation Yrotation Xrotation
					JOINT LeftToeBase
					{
						OFFSET 0.157640 -0.433110 2.322550
						CHANNELS 3 Zrotation Yrotation Xrotation
						End Site
						{
							OFFSET 0.000000 0.000000 0.000000
						}
					}
				}
			}
		}
	}
	JOINT RHipJoint
	{
		OFFSET 0.000000 0.000000 0.000000
		CHANNELS 3 Zrotation Yrotation Xrotation
		JOINT RightUpLeg
		{
			OFFSET -1.305520 -1.794630 0.839290
			CHANNELS 3 Zrotation Yrotation Xrotation
			JOINT RightLeg
			{
				OFFSET -2.542530 -6.985550 0.000000
				CHANNELS 3 Zrotation Yrotation Xrotation
				JOINT RightFoot
				{
					OFFSET -2.568260 -7.056230 0.000000
					CHANNELS 3 Zrotation Yrotation Xrotation
					JOINT RightToeBase
					{
						OFFSET -0.164730 -0.452590 2.363150
						CHANNELS 3 Zrotation Yrotation Xrotation
						End Site
						{
							OFFSET 0.000000 0.000000 0.000000
						}
					}
				}
			}
		}
	}
	JOINT LowerBack
	{
		OFFSET 0.000000 0.000000 0.000000
		CHANNELS 3 Zrotation Yrotation Xrotation
		JOINT Spine
		{
			OFFSET 0.028270 2.035590 -0.193380
			CHANNELS 3 Zrotation Yrotation Xrotation
			JOINT Spine1
			{
				OFFSET 0.056720 2.048850 -0.042750
				CHANNELS 3 Zrotation Yrotation Xrotation
				JOINT Neck
				{
					OFFSET 0.000000 0.000000 0.000000
					CHANNELS 3 Zrotation Yrotation Xrotation
					JOINT Neck1
					{
						OFFSET -0.054170 1.746240 0.172020
						CHANNELS 3 Zrotation Yrotation Xrotation
						JOINT Head
						{
							OFFSET 0.104070 1.761360 -0.123970
							CHANNELS 3 Zrotation Yrotation Xrotation
							End Site
							{
								OFFSET 0.000000 0.000000 0.000000
							}
						}
					}
				}
				JOINT LeftShoulder
				{
					OFFSET 0.000000 0.000000 0.000000
					CHANNELS 3 Zrotation Yrotation Xrotation
					JOINT LeftArm
					{
						OFFSET 3.362410 1.200890 -0.311210
						CHANNELS 3 Zrotation Yrotation Xrotation
						JOINT LeftForeArm
						{
							OFFSET 4.983000 -0.000000 -0.000000
							CHANNELS 3 Zrotation Yrotation Xrotation
							JOINT LeftHand
							{
								OFFSET 3.483560 -0.000000 -0.000000
								CHANNELS 3 Zrotation Yrotation Xrotation
								JOINT LeftFingerBase
								{
									OFFSET 0.000000 0.000000 0.000000
									CHANNELS 3 Zrotation Yrotation Xrotation
									JOINT LeftHandIndex1
									{
										OFFSET 0.715260 -0.000000 -0.000000
										CHANNELS 3 Zrotation Yrotation Xrotation
										End Site
										{
											OFFSET 0.000000 0.000000 0.000000
										}
									}
								}
								JOINT LThumb
								{
									OFFSET 0.000000 0.000000 0.000000
									CHANNELS 3 Zrotation Yrotation Xrotation
									End Site
									{
										OFFSET 0.000000 0.000000 0.000000
									}
								}
							}
						}
					}
				}
				JOINT RightShoulder
				{
					OFFSET 0.000000 0.000000 0.000000
					CHANNELS 3 Zrotation Yrotation Xrotation
					JOINT RightArm
					{
						OFFSET -3.136600 1.374050 -0.404650
						CHANNELS 3 Zrotation Yrotation Xrotation
						JOINT RightForeArm
						{
							OFFSET -5.241900 -0.000000 -0.000000
							CHANNELS 3 Zrotation Yrotation Xrotation
							JOINT RightHand
							{
								OFFSET -3.444170 -0.000000 -0.000000
								CHANNELS 3 Zrotation Yrotation Xrotation
								JOINT RightFingerBase
								{
									OFFSET 0.000000 0.000000 0.000000
									CHANNELS 3 Zrotation Yrotation Xrotation
									JOINT RightHandIndex1
									{
										OFFSET -0.622530 -0.000000 -0.000000
										CHANNELS 3 Zrotation Yrotation Xrotation
										End Site
										{
											OFFSET 0.000000 0.000000 0.000000
										}
									}
								}
								JOINT RThumb
								{
									OFFSET 0.000000 0.000000 0.000000
									CHANNELS 3 Zrotation Yrotation Xrotation
									End Site
									{
										OFFSET 0.000000 0.000000 0.000000
									}
								}
							}
						}
					}
				}
			}
		}
	}
}
MOTION
Frames: 4
Frame Time: 0.008333
0.097715 17.808191 -14.609773 -1.933812 0.831903 8.503225 -1.502766 -0.276282 0.450215 -12.616934 1.305696 -18.179489 -0.344978 6.381479 17.262755 -0.777287 5.518365 1.425321 0.342700 -3.761800 -10.407600 -0.548583 -0.118239 -0.223425 19.389853 1.508822 -15.936918 -0.223762 -6.835667 19.131470 -0.380910 0.600762 -3.349374 -0.215300 -2.987200 8.243000 2.494335 -0.794081 -0.083930 1.557108 -1.070445 -1.088897 0.689417 -0.836432 9.565851 -4.451610 -1.571982 -7.938120 3.675800 -1.795014 37.739497 1.156900 -0.352800 14.066800 9.228399 5.432098 0.673750 -97.289193 -11.015507 27.337601 8.334299 -18.314650 -1.473885 -0.111026 -0.696739 -1.497210 23.038654 -3.862476 -1.328000 -7.125000 0.000000 0.000000 -2.618800 26.601300 1.170100 -8.396443 -4.418296 0.226191 92.931257 11.702808 16.177305 -11.559403 24.144949 -2.908352 0.702582 0.936265 29.270718 -21.296095 -24.594105 9.711400 7.125000 0.000000 0.000000 9.264800 -57.198500 -2.784800 
0.096599 17.807379 -14.603989 -1.920761 0.807177 8.471146 -1.504504 -0.269293 0.460122 -12.629064 1.360221 -18.111892 -0.349738 6.363346 17.218846 -0.766359 5.465600 1.380266 0.332900 -3.708100 -10.256800 -0.548740 -0.122678 -0.222086 19.381316 1.469364 -15.894476 -0.224372 -6.834214 19.131669 -0.390624 0.659756 -3.352450 -0.221200 -3.027900 8.356300 2.465744 -0.791012 -0.148346 1.557618 -1.068453 -1.093660 0.709569 -0.838786 9.582165 -4.447858 -1.576851 -7.957881 3.628761 -1.780323 37.724174 1.136000 -0.350500 14.064100 9.231370 5.437056 0.670705 -97.399164 -10.990339 27.733514 8.442974 -18.500257 -1.511403 -0.106320 -0.697999 -1.646310 23.038712 -3.814386 -1.306900 -7.125000 0.000000 0.000000 -2.621300 26.654700 1.167900 -8.391575 -4.419755 0.228184 92.887416 11.722588 15.913057 -11.446828 23.979057 -2.860229 0.708286 0.932390 29.553622 -21.320570 -24.487571 9.687400 7.125000 0.000000 0.000000 9.187700 -57.095800 -2.738500 
0.095483 17.807177 -14.595263 -1.947202 0.793636 8.435764 -1.502408 -0.259992 0.473077 -12.597946 1.431522 -18.047671 -0.353052 6.345603 17.179315 -0.752181 5.397013 1.345260 0.333400 -3.710800 -10.264500 -0.547743 -0.128063 -0.217912 19.420237 1.473563 -15.831811 -0.227190 -6.839313 19.148939 -0.390223 0.653563 -3.393869 -0.217600 -3.003100 8.287300 2.506413 -0.788855 -0.181026 1.550323 -1.067866 -1.115207 0.663275 -0.831459 9.522034 -4.479612 -1.573982 -7.913602 3.652003 -1.784762 37.695094 1.153900 -0.357000 14.044000 9.228547 5.437038 0.667396 -97.441983 -10.918819 27.936578 8.475116 -18.530321 -1.522251 -0.142299 -0.685398 -1.516040 22.895102 -5.521791 -2.029700 -7.125000 0.000000 0.000000 -2.700300 24.791900 1.320500 -8.395698 -4.422421 0.230899 92.924683 11.634221 15.589387 -11.315268 23.785507 -2.803808 0.718604 0.923123 29.954508 -21.456476 -24.328919 9.700500 7.125000 0.000000 0.000000 8.962400 -56.962500 -2.641600 
0.095686 17.805249 -14.592625 -1.956709 0.782452 8.390524 -1.503289 -0.253572 0.481664 -12.588445 1.484679 -17.989990 -0.357277 6.328433 17.137691 -0.740678 5.343581 1.333540 0.338500 -3.738900 -10.343200 -0.548874 -0.131810 -0.217464 19.430720 1.468076 -15.785582 -0.229697 -6.843962 19.164447 -0.390879 0.656568 -3.409452 -0.217300 -3.000600 8.280500 2.483794 -0.778447 -0.251647 1.552108 -1.056915 -1.117191 0.685704 -0.829439 9.548905 -4.456320 -1.576832 -7.935307 3.627987 -1.781433 37.708475 1.137400 -0.353100 14.054100 9.233230 5.440329 0.663055 -97.536986 -10.903299 28.643697 8.595375 -18.749343 -1.558460 -0.114825 -0.698258 -2.144762 23.269490 -4.503847 -1.619700 -7.125000 0.000000 0.000000 -2.431800 25.900000 1.126300 -8.389242 -4.422625 0.233176 92.904913 11.712805 15.311444 -11.192893 23.598594 -2.749313 0.718526 0.929471 30.111783 -21.338543 -24.514966 9.706700 7.125000 0.000000 0.000000 9.184500 -57.132200 -2.745600 
